<!--?xml version="1.0" standalone="no"?-->
              <svg id="sw-js-blob-svg" viewBox="0 0 100 100" xmlns="http://www.w3.org/2000/svg" version="1.1">
                    <defs> 
                        <linearGradient id="sw-gradient" x1="0" x2="1" y1="1" y2="0">
                            <stop id="stop1" stop-color="rgba(255, 145.496, 153.146, 1)" offset="0%"></stop>
                            <stop id="stop2" stop-color="rgba(255, 215.752, 180.048, 1)" offset="100%"></stop>
                        </linearGradient>
                    </defs>
                <path fill="url(#sw-gradient)" d="M25,-29C32.1,-23.8,37.3,-15.7,39.4,-6.5C41.5,2.6,40.6,12.7,35.7,20.1C30.8,27.5,22.1,32.1,13.1,35C4,37.9,-5.3,39,-14.7,37C-24.1,35.1,-33.5,29.9,-38,22C-42.5,14.1,-42.1,3.4,-40.3,-7.1C-38.5,-17.6,-35.3,-27.9,-28.3,-33.1C-21.3,-38.4,-10.7,-38.6,-0.9,-37.5C9,-36.5,17.9,-34.3,25,-29Z" width="100%" height="100%" transform="translate(50 50)" stroke-width="0" style="transition: all 0.3s ease 0s;" stroke="url(#sw-gradient)"></path>
              </svg>