<svg version="1.1" id="Layer_1" xmlns="http://www.w3.org/2000/svg" xmlns:xlink="http://www.w3.org/1999/xlink" x="0px" y="0px"
	 width="100%" viewBox="0 0 1080 1080" enable-background="new 0 0 1080 1080" xml:space="preserve">
<path fill="#FFFFFF" opacity="1.000000" stroke="none" 
	d="
M651.000000,0.999999 
	C794.314026,1.000000 937.627991,1.000000 1080.941895,1.000007 
	C1080.961182,1.147333 1080.997559,1.294652 1080.997559,1.441972 
	C1081.000122,361.226776 1081.000000,721.011597 1081.000000,1080.898193 
	C721.116455,1080.898193 361.232819,1080.898193 1.000000,1080.898193 
	C1.000000,915.972107 1.000000,750.944031 1.229546,585.480225 
	C1.459092,585.044617 1.919614,585.070496 1.932938,585.528259 
	C2.278864,591.122803 2.366874,596.289490 2.990704,601.390686 
	C4.741126,615.704102 6.171414,630.087219 8.707454,644.267700 
	C14.287309,675.468018 23.830717,705.481812 36.607983,734.530518 
	C54.798733,775.886536 79.077461,813.291748 109.406464,846.638489 
	C135.845337,875.708069 165.788467,900.728882 199.407837,921.299500 
	C231.389008,940.867676 265.225983,956.141907 301.229614,966.574829 
	C341.554871,978.260010 382.718903,983.703918 424.707550,983.019104 
	C447.671478,982.644531 470.371277,980.069824 492.998993,976.165466 
	C523.633545,970.879456 553.088440,961.731140 581.571899,949.567932 
	C611.359619,936.847778 639.539001,921.046753 665.263672,901.288574 
	C678.015259,891.494568 689.862915,880.523560 702.481323,869.939453 
	C703.644348,869.570618 704.433472,869.278931 705.248657,869.134277 
	C738.303223,863.271057 770.130554,853.348450 800.854431,839.910522 
	C878.548218,805.928833 941.159302,753.542969 988.571960,683.465149 
	C1031.940063,619.365295 1056.637451,548.468018 1062.172607,471.050964 
	C1066.123169,415.796509 1060.687622,361.543304 1043.841797,308.779083 
	C1011.497986,207.471664 950.653809,127.517807 861.199280,69.911453 
	C800.994141,31.140955 735.003906,8.575700 663.452271,2.782794 
	C659.280701,2.445060 655.149841,1.605839 651.000000,0.999999 
z"/>
<path fill="#222231" opacity="1.000000" stroke="none" 
	d="
M650.531372,0.999999 
	C655.149841,1.605839 659.280701,2.445060 663.452271,2.782794 
	C735.003906,8.575700 800.994141,31.140955 861.199280,69.911453 
	C950.653809,127.517807 1011.497986,207.471664 1043.841797,308.779083 
	C1060.687622,361.543304 1066.123169,415.796509 1062.172607,471.050964 
	C1056.637451,548.468018 1031.940063,619.365295 988.571960,683.465149 
	C941.159302,753.542969 878.548218,805.928833 800.854431,839.910522 
	C770.130554,853.348450 738.303223,863.271057 705.248657,869.134277 
	C704.433472,869.278931 703.644348,869.570618 702.054504,869.881714 
	C665.465881,875.973572 629.496582,877.755188 593.251282,875.135986 
	C544.992981,871.648682 498.681091,860.322571 454.247681,841.363098 
	C383.150726,811.026489 324.157623,764.923828 277.522308,703.378418 
	C225.986847,635.366150 196.519943,558.730774 189.787094,473.488983 
	C185.963776,425.083527 189.771088,377.336151 201.820999,330.303528 
	C215.599258,276.524780 238.833221,227.140762 271.326752,182.113831 
	C272.737122,180.159439 273.772797,177.934662 275.202057,175.585892 
	C276.592773,174.213913 277.926605,173.218140 278.912872,171.951706 
	C324.040985,114.004173 379.776367,69.481453 446.863129,39.383381 
	C491.997925,19.133930 539.121765,6.480585 588.549988,2.751941 
	C592.057434,2.487357 595.517761,1.598557 599.000000,1.000003 
	C616.020874,1.000000 633.041809,1.000000 650.531372,0.999999 
M794.624878,747.964111 
	C836.465637,724.964905 872.525696,694.979553 901.879456,657.346191 
	C963.670776,578.126038 987.832581,488.270325 974.512146,388.903168 
	C965.451111,321.310944 938.125793,261.247375 893.367798,209.650391 
	C828.160461,134.479355 745.450195,93.714722 646.266052,87.263672 
	C587.936279,83.469841 531.948059,94.256332 478.698425,118.568069 
	C459.614716,127.280960 441.280640,137.346024 423.803070,150.040710 
	C392.602509,171.966171 365.229309,197.980148 342.912201,228.859726 
	C280.463379,315.268402 260.088348,411.092987 282.209076,515.250061 
	C297.757446,588.460876 334.565308,650.164917 390.076447,700.205566 
	C447.895752,752.326904 515.917847,781.973267 593.572998,789.306458 
	C636.678894,793.377014 679.025391,789.467468 720.696350,777.919678 
	C746.247803,770.838989 770.712158,761.034973 794.624878,747.964111 
z"/>
<path fill="#FFFFFF" opacity="1.000000" stroke="none" 
	d="
M598.531372,1.000003 
	C595.517761,1.598557 592.057434,2.487357 588.549988,2.751941 
	C539.121765,6.480585 491.997925,19.133930 446.863129,39.383381 
	C379.776367,69.481453 324.040985,114.004173 278.912872,171.951706 
	C277.926605,173.218140 276.592773,174.213913 274.814758,175.622940 
	C264.335876,179.858276 254.269791,183.386703 244.625305,187.830154 
	C209.372879,204.071777 176.863205,224.636917 147.355881,249.961578 
	C120.566650,272.953461 96.936028,298.777679 76.696060,327.661438 
	C51.097797,364.191864 31.730742,403.782043 18.948446,446.575623 
	C9.064170,479.666962 3.133153,513.395691 1.690667,547.943970 
	C1.460036,547.957153 1.000000,548.000000 1.000000,548.000000 
	C1.000000,365.736328 1.000000,183.472656 1.000000,1.000000 
	C200.020844,1.000000 399.041779,1.000000 598.531372,1.000003 
z"/>
<path fill="#FEDCD1" opacity="1.000000" stroke="none" 
	d="
M1.000000,548.468628 
	C1.000000,548.000000 1.460036,547.957153 1.731500,548.418274 
	C1.975181,560.943115 1.947398,573.006775 1.919614,585.070496 
	C1.919614,585.070496 1.459092,585.044617 1.229546,585.022339 
	C1.000000,572.979126 1.000000,560.958191 1.000000,548.468628 
z"/>
<path fill="#FDBDA8" opacity="1.000000" stroke="none" 
	d="
M1.932938,585.528259 
	C1.947398,573.006775 1.975181,560.943115 1.962132,548.405029 
	C3.133153,513.395691 9.064170,479.666962 18.948446,446.575623 
	C31.730742,403.782043 51.097797,364.191864 76.696060,327.661438 
	C96.936028,298.777679 120.566650,272.953461 147.355881,249.961578 
	C176.863205,224.636917 209.372879,204.071777 244.625305,187.830154 
	C254.269791,183.386703 264.335876,179.858276 274.595764,175.872879 
	C273.772797,177.934662 272.737122,180.159439 271.326752,182.113831 
	C238.833221,227.140762 215.599258,276.524780 201.820999,330.303528 
	C189.771088,377.336151 185.963776,425.083527 189.787094,473.488983 
	C196.519943,558.730774 225.986847,635.366150 277.522308,703.378418 
	C324.157623,764.923828 383.150726,811.026489 454.247681,841.363098 
	C498.681091,860.322571 544.992981,871.648682 593.251282,875.135986 
	C629.496582,877.755188 665.465881,875.973572 701.692749,870.027344 
	C689.862915,880.523560 678.015259,891.494568 665.263672,901.288574 
	C639.539001,921.046753 611.359619,936.847778 581.571899,949.567932 
	C553.088440,961.731140 523.633545,970.879456 492.998993,976.165466 
	C470.371277,980.069824 447.671478,982.644531 424.707550,983.019104 
	C382.718903,983.703918 341.554871,978.260010 301.229614,966.574829 
	C265.225983,956.141907 231.389008,940.867676 199.407837,921.299500 
	C165.788467,900.728882 135.845337,875.708069 109.406464,846.638489 
	C79.077461,813.291748 54.798733,775.886536 36.607983,734.530518 
	C23.830717,705.481812 14.287309,675.468018 8.707454,644.267700 
	C6.171414,630.087219 4.741126,615.704102 2.990704,601.390686 
	C2.366874,596.289490 2.278864,591.122803 1.932938,585.528259 
z"/>
<path fill="#FDBDA8" opacity="1.000000" stroke="none" 
	d="
M793.921204,748.165771 
	C770.712158,761.034973 746.247803,770.838989 720.696350,777.919678 
	C679.025391,789.467468 636.678894,793.377014 593.572998,789.306458 
	C515.917847,781.973267 447.895752,752.326904 390.076447,700.205566 
	C334.565308,650.164917 297.757446,588.460876 282.209076,515.250061 
	C260.088348,411.092987 280.463379,315.268402 342.912201,228.859726 
	C365.229309,197.980148 392.602509,171.966171 424.581543,150.039322 
	C427.498840,150.322266 429.630981,150.677338 431.777527,150.879791 
	C449.774475,152.577316 467.900208,153.407639 485.747986,156.090149 
	C530.182617,162.768631 572.096924,177.379852 611.833069,198.328278 
	C659.074585,223.233475 699.745361,256.222260 734.495056,296.760803 
	C756.178894,322.056763 774.410828,349.580841 789.463074,379.195648 
	C804.435974,408.654175 815.528992,439.592133 823.021240,471.809265 
	C830.121460,502.340820 833.736206,533.278625 833.922791,564.604919 
	C833.971313,572.742676 833.737183,580.916870 833.003784,589.017395 
	C831.493591,605.697449 830.409363,622.482727 827.625732,638.967346 
	C821.453003,675.521729 810.208435,710.601746 794.408386,744.187317 
	C793.868164,745.335754 794.066895,746.831726 793.921204,748.165771 
z"/>
<path fill="#FFFFFF" opacity="1.000000" stroke="none" 
	d="
M794.273071,748.064941 
	C794.066895,746.831726 793.868164,745.335754 794.408386,744.187317 
	C810.208435,710.601746 821.453003,675.521729 827.625732,638.967346 
	C830.409363,622.482727 831.493591,605.697449 833.003784,589.017395 
	C833.737183,580.916870 833.971313,572.742676 833.922791,564.604919 
	C833.736206,533.278625 830.121460,502.340820 823.021240,471.809265 
	C815.528992,439.592133 804.435974,408.654175 789.463074,379.195648 
	C774.410828,349.580841 756.178894,322.056763 734.495056,296.760803 
	C699.745361,256.222260 659.074585,223.233475 611.833069,198.328278 
	C572.096924,177.379852 530.182617,162.768631 485.747986,156.090149 
	C467.900208,153.407639 449.774475,152.577316 431.777527,150.879791 
	C429.630981,150.677338 427.498840,150.322266 424.900391,150.001175 
	C441.280640,137.346024 459.614716,127.280960 478.698425,118.568069 
	C531.948059,94.256332 587.936279,83.469841 646.266052,87.263672 
	C745.450195,93.714722 828.160461,134.479355 893.367798,209.650391 
	C938.125793,261.247375 965.451111,321.310944 974.512146,388.903168 
	C987.832581,488.270325 963.670776,578.126038 901.879456,657.346191 
	C872.525696,694.979553 836.465637,724.964905 794.273071,748.064941 
z"/>
</svg>