<!--?xml version="1.0" standalone="no"?-->
              <svg id="sw-js-blob-svg" viewBox="0 0 100 100" xmlns="http://www.w3.org/2000/svg" version="1.1">
                    <defs> 
                        <linearGradient id="sw-gradient" x1="0" x2="1" y1="1" y2="0">
                            <stop id="stop1" stop-color="rgba(255, 244, 241, 1)" offset="0%"></stop>
                            <stop id="stop2" stop-color="rgba(255, 244, 241, 1)" offset="100%"></stop>
                        </linearGradient>
                    </defs>
                <path fill="url(#sw-gradient)" d="M21.7,-37.8C27.7,-34.1,31.8,-27.4,34.6,-20.6C37.5,-13.8,39,-6.9,39.8,0.4C40.5,7.8,40.5,15.6,37.5,22.1C34.5,28.6,28.5,33.8,21.7,37.5C15,41.3,7.5,43.7,0.1,43.4C-7.2,43.2,-14.4,40.4,-20.1,35.9C-25.7,31.5,-29.7,25.5,-34.1,19.2C-38.6,13,-43.5,6.5,-44,-0.3C-44.4,-7,-40.4,-14,-36.1,-20.4C-31.7,-26.9,-27,-32.7,-20.9,-36.3C-14.8,-40,-7.4,-41.4,0.2,-41.8C7.8,-42.2,15.7,-41.5,21.7,-37.8Z" width="100%" height="100%" transform="translate(50 50)" stroke-width="0" style="transition: all 0.3s ease 0s;"></path>
              </svg>